<svg version="1.1" viewBox="0.0 0.0 960.0 540.0" fill="none" stroke="none" stroke-linecap="square" stroke-miterlimit="10" xmlns:xlink="http://www.w3.org/1999/xlink" xmlns="http://www.w3.org/2000/svg"><clipPath id="ge6e660ab8c_0_20.0"><path d="m0 0l960.0 0l0 540.0l-960.0 0l0 -540.0z" clip-rule="nonzero"/></clipPath><g clip-path="url(#ge6e660ab8c_0_20.0)"><defs><linearGradient id="ge6e660ab8c_0_20.1" gradientUnits="userSpaceOnUse" gradientTransform="matrix(23.237974851393545 0.0 0.0 23.237974851393545 0.0 0.0)" spreadMethod="pad" x1="5.413619158564821E-10" y1="-1.4954790521761285E-4" x2="-8.4120700051006E-5" y2="23.237825303336063"><stop offset="0.0" stop-color="#fce5cd"/><stop offset="0.15" stop-color="#f6b26b"/><stop offset="0.28" stop-color="#f6b26b"/><stop offset="0.6" stop-color="#fffcf2"/><stop offset="1.0" stop-color="#fffcf2"/></linearGradient></defs><path fill="url(#ge6e660ab8c_0_20.1)" d="m0 0l960.0 0l0 540.0l-960.0 0z" fill-rule="evenodd"/><path fill="#000000" fill-opacity="0.0" d="m99.96588 12.611548l576.0945 0l0 74.33071l-576.0945 0z" fill-rule="evenodd"/><path fill="#fffcf2" d="m412.62753 35.600296l0 6.421875l-3.015625 0q-0.53125 -2.5 -1.6875 -3.671875q-1.140625 -1.1875 -3.0 -1.1875q-3.5 0 -5.296875 3.359375q-1.796875 3.34375 -1.796875 9.9375q0 6.125 1.640625 9.28125q1.640625 3.15625 4.8125 3.15625q1.609375 0 2.625 -0.53125q1.015625 -0.546875 1.625 -1.625q0.609375 -1.09375 1.0625 -3.0625l3.03125 0l0 6.703125q-2.4375 0.578125 -4.453125 0.84375q-2.015625 0.265625 -4.1875 0.265625q-4.59375 0 -7.515625 -1.65625q-2.90625 -1.671875 -4.296875 -5.015625q-1.375 -3.359375 -1.375 -8.5q0 -4.796875 1.625 -8.34375q1.625 -3.5625 4.78125 -5.484375q3.171875 -1.921875 7.578125 -1.921875q2.234375 0 4.046875 0.25q1.828125 0.234375 3.796875 0.78125zm14.205353 29.890625q-3.25 0 -5.609375 -1.140625q-2.359375 -1.140625 -3.6875 -3.65625q-1.328125 -2.515625 -1.328125 -6.390625q0 -2.953125 0.8125 -5.125q0.828125 -2.171875 2.28125 -3.578125q1.46875 -1.421875 3.484375 -2.09375q2.03125 -0.6875 4.390625 -0.6875q5.359375 0 8.078125 2.828125q2.734375 2.8125 2.734375 8.265625q0 3.84375 -1.359375 6.453125q-1.34375 2.59375 -3.84375 3.859375q-2.5 1.265625 -5.953125 1.265625zm-3.890625 -11.671875q0 4.6875 1.046875 7.03125q1.046875 2.328125 3.171875 2.328125q1.171875 0 1.953125 -0.59375q0.796875 -0.59375 1.265625 -1.71875q0.484375 -1.140625 0.671875 -2.71875q0.203125 -1.578125 0.203125 -3.546875q0 -4.765625 -1.046875 -7.125q-1.046875 -2.359375 -3.109375 -2.359375q-1.515625 0 -2.421875 0.953125q-0.90625 0.953125 -1.328125 2.859375q-0.40625 1.90625 -0.40625 4.890625zm27.19757 -7.640625l0.265625 0.078125q2.015625 -1.890625 3.625 -2.65625q1.609375 -0.78125 3.296875 -0.78125q1.640625 0 2.71875 0.421875q1.09375 0.421875 1.84375 1.234375q0.75 0.796875 1.21875 2.109375q2.234375 -2.078125 3.875 -2.921875q1.65625 -0.84375 3.453125 -0.84375q1.765625 0 2.921875 0.46875q1.171875 0.46875 1.921875 1.4375q0.75 0.96875 1.09375 2.4375q0.34375 1.453125 0.34375 3.5l0 8.078125q0 0.96875 0.03125 1.828125q0.03125 0.84375 0.15625 1.359375q0.140625 0.5 0.375 0.828125q0.234375 0.3125 0.65625 0.546875q0.421875 0.21875 1.015625 0.375l0 1.453125l-10.671875 0l0 -1.453125q1.0 -0.25 1.375 -0.71875q0.375 -0.46875 0.515625 -1.28125q0.15625 -0.8125 0.15625 -2.921875l0 -5.9375q0 -1.984375 -0.140625 -3.234375q-0.125 -1.25 -0.515625 -1.953125q-0.375 -0.71875 -0.890625 -1.015625q-0.515625 -0.3125 -1.359375 -0.3125q-0.578125 0 -1.0625 0.171875q-0.484375 0.171875 -0.984375 0.546875q-0.5 0.359375 -0.859375 0.734375q-0.34375 0.375 -0.5625 0.84375q-0.203125 0.46875 -0.28125 1.046875q-0.078125 0.5625 -0.078125 1.875l0 7.21875q0 1.5 0.046875 2.296875q0.0625 0.796875 0.234375 1.28125q0.1875 0.484375 0.5625 0.8125q0.390625 0.3125 1.21875 0.546875l0 1.453125l-10.546875 0l0 -1.453125q1.03125 -0.25 1.40625 -0.71875q0.390625 -0.46875 0.515625 -1.265625q0.140625 -0.8125 0.140625 -2.9375l0 -5.9375q0 -1.453125 -0.0625 -2.453125q-0.046875 -1.015625 -0.1875 -1.625q-0.125 -0.625 -0.359375 -1.09375q-0.234375 -0.46875 -0.53125 -0.75q-0.296875 -0.296875 -0.703125 -0.4375q-0.40625 -0.15625 -1.03125 -0.15625q-0.8125 0 -1.71875 0.515625q-0.890625 0.5 -1.5 1.40625q-0.609375 0.90625 -0.609375 1.9375l0 8.578125q0 2.078125 0.125 2.90625q0.125 0.828125 0.515625 1.3125q0.40625 0.46875 1.390625 0.71875l0 1.453125l-10.59375 0l0 -1.453125q1.0625 -0.296875 1.46875 -0.75q0.40625 -0.46875 0.546875 -1.265625q0.15625 -0.796875 0.15625 -2.90625l0 -9.09375q0 -1.640625 -0.0625 -2.421875q-0.046875 -0.796875 -0.265625 -1.265625q-0.203125 -0.46875 -0.640625 -0.765625q-0.4375 -0.3125 -1.5 -0.53125l0 -1.5l6.078125 -0.1875l2.78125 0l-0.328125 3.1875zm40.39508 22.921875q0 1.65625 0.171875 2.34375q0.171875 0.6875 0.625 1.078125q0.453125 0.40625 1.609375 0.671875l0 1.453125l-11.015625 0l0 -1.453125q1.03125 -0.3125 1.4375 -0.6875q0.421875 -0.375 0.59375 -1.0625q0.171875 -0.671875 0.171875 -2.34375l0 -19.375q0 -1.5625 -0.03125 -2.21875q-0.03125 -0.671875 -0.15625 -1.140625q-0.125 -0.46875 -0.34375 -0.765625q-0.21875 -0.296875 -0.65625 -0.515625q-0.421875 -0.234375 -1.265625 -0.40625l0 -1.5l6.125 -0.1875l2.734375 0l-0.34375 3.21875l0.265625 0.0625q1.90625 -1.828125 3.546875 -2.640625q1.65625 -0.8125 3.40625 -0.8125q3.9375 0 5.90625 2.78125q1.96875 2.78125 1.96875 8.3125q0 3.828125 -1.15625 6.40625q-1.15625 2.578125 -3.46875 3.875q-2.296875 1.296875 -5.65625 1.296875q-2.28125 0 -4.46875 -0.578125l0 4.1875zm0 -11.234375q0 2.734375 0.9375 4.03125q0.9375 1.28125 2.90625 1.28125q2.03125 0 3.109375 -2.125q1.078125 -2.140625 1.078125 -6.109375q0 -4.390625 -0.96875 -6.515625q-0.953125 -2.125 -3.0 -2.125q-1.0 0 -1.9375 0.515625q-0.9375 0.5 -1.53125 1.4375q-0.59375 0.9375 -0.59375 2.109375l0 7.5zm38.818542 3.234375q-2.265625 2.390625 -4.484375 3.390625q-2.203125 1.0 -5.078125 1.0q-5.15625 0 -7.765625 -2.828125q-2.59375 -2.828125 -2.59375 -8.375q0 -3.59375 1.328125 -6.1875q1.34375 -2.59375 3.796875 -3.9375q2.46875 -1.34375 5.71875 -1.34375q2.015625 0 3.53125 0.46875q1.515625 0.46875 2.59375 1.296875q1.09375 0.828125 1.796875 2.0q0.84375 1.390625 1.265625 3.1875q0.4375 1.84375 0.46875 4.453125l-14.03125 0q0.015625 4.0 1.421875 5.890625q1.40625 1.890625 4.28125 1.890625q1.6875 0 3.03125 -0.625q1.34375 -0.625 2.921875 -2.21875l1.796875 1.9375zm-5.984375 -9.265625q-0.078125 -3.390625 -0.875 -5.046875q-0.796875 -1.671875 -2.578125 -1.671875q-1.703125 0 -2.71875 1.734375q-1.0 1.71875 -1.1875 4.984375l7.359375 0zm25.15216 10.640625q-1.953125 1.65625 -3.546875 2.34375q-1.59375 0.671875 -3.359375 0.671875q-3.296875 0 -4.9375 -1.78125q-1.625 -1.78125 -1.625 -5.390625l0 -12.375l-2.765625 0l0 -1.53125q1.359375 -0.21875 2.0 -0.65625q0.640625 -0.453125 0.984375 -1.1875q0.359375 -0.75 0.5625 -1.9375q0.21875 -1.203125 0.328125 -2.984375l5.296875 0l0 5.53125l6.3125 0l0 2.765625l-6.3125 0l0 9.984375q0 2.5 0.234375 3.703125q0.234375 1.1875 0.78125 1.75q0.546875 0.5625 1.375 0.5625q0.609375 0 1.09375 -0.109375q0.5 -0.109375 1.03125 -0.390625q0.546875 -0.296875 1.140625 -0.828125l1.40625 1.859375zm9.80542 -28.125l0 5.421875l-6.0625 0l0 -5.421875l6.0625 0zm-8.421875 29.328125q1.09375 -0.296875 1.5 -0.75q0.40625 -0.46875 0.546875 -1.265625q0.15625 -0.796875 0.15625 -2.90625l0 -10.296875q0 -1.078125 -0.109375 -1.734375q-0.09375 -0.671875 -0.375 -1.0625q-0.28125 -0.40625 -0.75 -0.609375q-0.46875 -0.21875 -1.234375 -0.375l0 -1.5l6.09375 -0.1875l2.765625 0l0 15.75q0 1.234375 0.03125 1.90625q0.03125 0.671875 0.09375 1.046875q0.078125 0.359375 0.1875 0.65625q0.125 0.28125 0.328125 0.53125q0.203125 0.234375 0.578125 0.4375q0.375 0.203125 1.0 0.359375l0 1.453125l-10.8125 0l0 -1.453125zm29.425415 -1.203125q-1.953125 1.65625 -3.546875 2.34375q-1.59375 0.671875 -3.359375 0.671875q-3.296875 0 -4.9375 -1.78125q-1.625 -1.78125 -1.625 -5.390625l0 -12.375l-2.765625 0l0 -1.53125q1.359375 -0.21875 2.0 -0.65625q0.640625 -0.453125 0.984375 -1.1875q0.359375 -0.75 0.5625 -1.9375q0.21875 -1.203125 0.328125 -2.984375l5.296875 0l0 5.53125l6.3125 0l0 2.765625l-6.3125 0l0 9.984375q0 2.5 0.234375 3.703125q0.234375 1.1875 0.78125 1.75q0.546875 0.5625 1.375 0.5625q0.609375 0 1.09375 -0.109375q0.5 -0.109375 1.03125 -0.390625q0.546875 -0.296875 1.140625 -0.828125l1.40625 1.859375zm9.80542 -28.125l0 5.421875l-6.0625 0l0 -5.421875l6.0625 0zm-8.421875 29.328125q1.09375 -0.296875 1.5 -0.75q0.40625 -0.46875 0.546875 -1.265625q0.15625 -0.796875 0.15625 -2.90625l0 -10.296875q0 -1.078125 -0.109375 -1.734375q-0.09375 -0.671875 -0.375 -1.0625q-0.28125 -0.40625 -0.75 -0.609375q-0.46875 -0.21875 -1.234375 -0.375l0 -1.5l6.09375 -0.1875l2.765625 0l0 15.75q0 1.234375 0.03125 1.90625q0.03125 0.671875 0.09375 1.046875q0.078125 0.359375 0.1875 0.65625q0.125 0.28125 0.328125 0.53125q0.203125 0.234375 0.578125 0.4375q0.375 0.203125 1.0 0.359375l0 1.453125l-10.8125 0l0 -1.453125zm25.019165 1.8125q-3.25 0 -5.609375 -1.140625q-2.359375 -1.140625 -3.6875 -3.65625q-1.328125 -2.515625 -1.328125 -6.390625q0 -2.953125 0.8125 -5.125q0.828125 -2.171875 2.28125 -3.578125q1.46875 -1.421875 3.484375 -2.09375q2.03125 -0.6875 4.390625 -0.6875q5.359375 0 8.078125 2.828125q2.734375 2.8125 2.734375 8.265625q0 3.84375 -1.359375 6.453125q-1.34375 2.59375 -3.84375 3.859375q-2.5 1.265625 -5.953125 1.265625zm-3.890625 -11.671875q0 4.6875 1.046875 7.03125q1.046875 2.328125 3.171875 2.328125q1.171875 0 1.953125 -0.59375q0.796875 -0.59375 1.265625 -1.71875q0.484375 -1.140625 0.671875 -2.71875q0.203125 -1.578125 0.203125 -3.546875q0 -4.765625 -1.046875 -7.125q-1.046875 -2.359375 -3.109375 -2.359375q-1.515625 0 -2.421875 0.953125q-0.90625 0.953125 -1.328125 2.859375q-0.40625 1.90625 -0.40625 4.890625zm43.025696 11.3125l-10.734375 0l0 -1.453125q1.015625 -0.25 1.40625 -0.71875q0.40625 -0.484375 0.546875 -1.28125q0.140625 -0.8125 0.140625 -2.921875l0 -5.90625q0 -1.578125 -0.0625 -2.578125q-0.0625 -1.015625 -0.21875 -1.65625q-0.140625 -0.640625 -0.390625 -1.0625q-0.25 -0.4375 -0.5625 -0.703125q-0.3125 -0.28125 -0.71875 -0.40625q-0.390625 -0.140625 -1.015625 -0.140625q-0.84375 0 -1.75 0.515625q-0.90625 0.515625 -1.53125 1.4375q-0.609375 0.921875 -0.609375 1.953125l0 8.53125q0 2.09375 0.125 2.921875q0.140625 0.8125 0.546875 1.296875q0.40625 0.46875 1.453125 0.71875l0 1.453125l-10.6875 0l0 -1.453125q1.0625 -0.296875 1.46875 -0.75q0.40625 -0.46875 0.546875 -1.265625q0.15625 -0.796875 0.15625 -2.90625l0 -9.09375q0 -1.640625 -0.0625 -2.421875q-0.046875 -0.796875 -0.265625 -1.265625q-0.203125 -0.46875 -0.640625 -0.765625q-0.4375 -0.3125 -1.5 -0.53125l0 -1.5l6.078125 -0.1875l2.78125 0l-0.328125 3.1875l0.265625 0.078125q1.375 -1.21875 2.40625 -1.90625q1.046875 -0.703125 2.1875 -1.109375q1.140625 -0.421875 2.390625 -0.421875q1.828125 0 3.015625 0.53125q1.203125 0.515625 1.9375 1.515625q0.734375 0.984375 1.046875 2.421875q0.328125 1.4375 0.328125 3.34375l0 8.109375q0 0.96875 0.03125 1.828125q0.046875 0.84375 0.171875 1.359375q0.140625 0.5 0.359375 0.828125q0.234375 0.3125 0.65625 0.546875q0.421875 0.21875 1.03125 0.375l0 1.453125zm6.153076 -5.96875q0.53125 2.0 1.671875 3.015625q1.15625 1.0 3.078125 1.0q1.65625 0 2.5 -0.75q0.859375 -0.75 0.859375 -2.1875q0 -0.90625 -0.390625 -1.546875q-0.375 -0.640625 -1.28125 -1.21875q-0.890625 -0.59375 -3.0625 -1.546875q-1.21875 -0.53125 -2.296875 -1.171875q-1.0625 -0.640625 -1.859375 -1.453125q-0.796875 -0.8125 -1.265625 -1.796875q-0.46875 -1.0 -0.46875 -2.21875q0 -2.0 1.15625 -3.453125q1.15625 -1.46875 3.28125 -2.234375q2.140625 -0.78125 4.890625 -0.78125q1.609375 0 3.15625 0.140625q1.5625 0.125 4.015625 0.5625l0 5.171875l-2.921875 0q-0.515625 -1.421875 -1.125 -2.1875q-0.609375 -0.78125 -1.34375 -1.078125q-0.71875 -0.3125 -1.734375 -0.3125q-1.46875 0 -2.328125 0.671875q-0.859375 0.65625 -0.859375 1.859375q0 0.84375 0.296875 1.4375q0.3125 0.59375 1.109375 1.171875q0.796875 0.5625 3.078125 1.5q2.078125 0.875 3.390625 1.8125q1.3125 0.9375 1.984375 2.171875q0.6875 1.21875 0.6875 2.859375q0 1.796875 -0.671875 3.09375q-0.65625 1.296875 -1.859375 2.140625q-1.1875 0.828125 -2.859375 1.25q-1.671875 0.40625 -3.671875 0.40625q-3.65625 0 -8.125 -1.046875l0 -5.28125l2.96875 0z" fill-rule="nonzero"/><path fill="#fffcf2" d="m0 86.94226l728.8189 0l0 11.433067l-728.8189 0z" fill-rule="evenodd"/><path stroke="#ffffff" stroke-width="1.0" stroke-linejoin="round" stroke-linecap="butt" d="m0 86.94226l728.8189 0l0 11.433067l-728.8189 0z" fill-rule="evenodd"/><path fill="#fffcf2" d="m733.63257 86.94226l0 459.02362l-11.433105 0l0 -459.02362z" fill-rule="evenodd"/><path stroke="#ffffff" stroke-width="1.0" stroke-linejoin="round" stroke-linecap="butt" d="m733.63257 86.94226l0 459.02362l-11.433105 0l0 -459.02362z" fill-rule="evenodd"/></g></svg>